<?xml version="1.0" standalone="no"?>
<!DOCTYPE svg PUBLIC "-//W3C//DTD SVG 20010904//EN"
 "http://www.w3.org/TR/2001/REC-SVG-20010904/DTD/svg10.dtd">
<svg version="1.0" xmlns="http://www.w3.org/2000/svg"
 width="96.000000pt" height="96.000000pt" viewBox="0 0 96.000000 96.000000"
 preserveAspectRatio="xMidYMid meet">
<metadata>
Created by potrace 1.14, written by Peter Selinger 2001-2017
</metadata>
<g transform="translate(0.000000,96.000000) scale(0.100000,-0.100000)"
fill="#000000" stroke="none">
<path d="M448 848 c-13 -13 -62 -57 -108 -98 -47 -41 -87 -78 -90 -81 -3 -3
-51 -47 -108 -97 l-103 -92 61 0 60 0 0 -180 0 -180 40 0 40 0 0 216 c0 199 2
218 19 233 31 27 183 165 197 179 19 18 32 15 67 -18 18 -17 69 -63 114 -103
l83 -72 0 -217 0 -218 40 0 40 0 0 180 0 180 60 0 60 0 -58 53 c-302 273 -374
337 -384 337 -4 0 -18 -10 -30 -22z"/>
<path d="M332 508 c-7 -7 -12 -37 -12 -68 0 -31 5 -61 12 -68 17 -17 279 -17
296 0 16 16 16 120 0 136 -17 17 -279 17 -296 0z m98 -43 c17 -21 -2 -65 -28
-65 -39 0 -57 50 -24 69 24 15 38 13 52 -4z"/>
<path d="M332 268 c-7 -7 -12 -37 -12 -68 0 -31 5 -61 12 -68 17 -17 279 -17
296 0 16 16 16 120 0 136 -17 17 -279 17 -296 0z m98 -43 c18 -22 -2 -65 -30
-65 -28 0 -48 43 -30 65 7 8 20 15 30 15 10 0 23 -7 30 -15z"/>
</g>
</svg>
